<svg xmlns="http://www.w3.org/2000/svg" width="257" height="174" viewBox="0 0 257 174"><path d="M 147,44 L 146,45 L 146,47 L 147,48 L 145,50 L 145,53 L 144,54 L 144,58 L 143,59 L 143,62 L 142,63 L 142,67 L 141,68 L 141,71 L 140,72 L 140,76 L 139,77 L 139,81 L 138,82 L 138,85 L 137,86 L 137,87 L 138,88 L 136,90 L 136,94 L 135,95 L 135,98 L 134,99 L 134,103 L 133,104 L 133,107 L 132,108 L 132,112 L 131,113 L 131,116 L 130,117 L 130,119 L 131,120 L 129,122 L 129,126 L 128,127 L 128,130 L 127,131 L 127,134 L 125,136 L 125,138 L 124,139 L 124,140 L 119,145 L 118,145 L 117,146 L 116,146 L 117,147 L 116,148 L 115,148 L 114,147 L 113,148 L 100,148 L 99,147 L 97,147 L 96,146 L 95,146 L 93,144 L 92,144 L 90,142 L 89,142 L 88,141 L 88,140 L 87,140 L 85,142 L 85,143 L 83,145 L 83,146 L 80,149 L 80,150 L 78,152 L 78,153 L 76,155 L 76,156 L 72,160 L 72,161 L 70,163 L 72,165 L 73,165 L 74,166 L 74,167 L 75,167 L 76,168 L 77,168 L 79,170 L 80,170 L 81,171 L 83,171 L 84,172 L 85,172 L 86,173 L 128,173 L 128,172 L 129,171 L 131,171 L 132,172 L 131,173 L 130,173 L 131,173 L 132,172 L 133,172 L 134,171 L 135,171 L 137,169 L 138,169 L 140,167 L 141,167 L 141,166 L 142,165 L 143,165 L 143,164 L 144,163 L 145,163 L 146,162 L 146,161 L 148,159 L 148,158 L 151,155 L 151,154 L 152,153 L 152,152 L 153,151 L 153,150 L 154,149 L 154,148 L 155,147 L 155,145 L 156,144 L 156,142 L 157,141 L 157,139 L 158,138 L 158,136 L 159,135 L 159,131 L 160,130 L 160,128 L 161,127 L 161,122 L 162,121 L 162,118 L 163,117 L 163,114 L 164,113 L 164,109 L 165,108 L 165,104 L 166,103 L 166,100 L 167,99 L 167,96 L 168,95 L 168,90 L 169,89 L 169,86 L 170,85 L 170,82 L 171,81 L 171,77 L 172,76 L 172,73 L 173,72 L 173,69 L 174,68 L 174,64 L 175,63 L 175,60 L 176,59 L 176,54 L 177,53 L 177,50 L 178,49 L 178,46 L 179,45 L 179,44 Z" fill="limegreen" /><path d="M 104,44 L 103,45 L 103,47 L 104,48 L 104,49 L 103,50 L 102,49 L 102,53 L 101,54 L 101,55 L 102,56 L 100,58 L 100,62 L 99,63 L 99,66 L 98,67 L 98,70 L 99,71 L 98,72 L 97,72 L 97,75 L 96,76 L 96,79 L 95,80 L 95,85 L 94,86 L 94,89 L 93,90 L 93,93 L 92,94 L 92,98 L 91,99 L 91,101 L 92,102 L 92,103 L 91,104 L 90,103 L 90,106 L 89,107 L 89,111 L 88,112 L 88,116 L 87,117 L 87,119 L 88,120 L 86,122 L 86,125 L 85,126 L 85,127 L 86,128 L 84,130 L 84,131 L 117,131 L 117,128 L 118,127 L 118,124 L 119,123 L 119,120 L 120,119 L 120,115 L 121,114 L 121,110 L 122,109 L 122,106 L 123,105 L 123,101 L 124,100 L 124,97 L 125,96 L 125,93 L 126,92 L 126,88 L 127,87 L 127,84 L 128,83 L 128,78 L 129,77 L 129,74 L 130,73 L 130,70 L 131,69 L 131,66 L 132,65 L 132,61 L 133,60 L 133,56 L 134,55 L 134,52 L 135,51 L 135,48 L 136,47 L 136,44 Z" fill="limegreen" /><path d="M 14,44 L 15,45 L 13,47 L 13,51 L 12,52 L 12,55 L 11,56 L 11,60 L 10,61 L 10,63 L 11,64 L 10,65 L 9,65 L 9,68 L 8,69 L 8,74 L 7,75 L 7,78 L 6,79 L 6,82 L 5,83 L 5,86 L 4,87 L 4,91 L 3,92 L 3,97 L 2,98 L 2,101 L 1,102 L 1,103 L 2,104 L 0,106 L 0,110 L 31,110 L 32,111 L 32,106 L 33,105 L 33,102 L 34,101 L 34,98 L 35,97 L 35,93 L 36,92 L 36,89 L 37,88 L 37,85 L 38,84 L 38,83 L 39,82 L 40,83 L 51,83 L 52,84 L 52,85 L 51,86 L 51,89 L 50,90 L 50,93 L 49,94 L 49,98 L 48,99 L 48,103 L 47,104 L 47,107 L 46,108 L 46,111 L 46,109 L 47,108 L 48,109 L 48,110 L 72,110 L 73,109 L 74,110 L 74,111 L 75,111 L 75,110 L 76,109 L 77,110 L 77,111 L 79,109 L 79,105 L 80,104 L 80,100 L 81,99 L 81,96 L 82,95 L 82,91 L 83,90 L 83,88 L 84,87 L 84,82 L 85,81 L 85,78 L 86,77 L 86,73 L 87,72 L 87,69 L 88,68 L 88,64 L 89,63 L 89,60 L 90,59 L 90,55 L 91,54 L 91,50 L 92,49 L 92,48 L 91,47 L 93,45 L 93,44 L 61,44 L 60,45 L 60,49 L 59,50 L 59,53 L 58,54 L 58,58 L 57,59 L 57,62 L 56,63 L 56,66 L 55,67 L 56,68 L 54,70 L 53,69 L 44,69 L 43,70 L 42,69 L 41,69 L 40,68 L 41,67 L 41,66 L 42,65 L 42,61 L 43,60 L 43,58 L 42,57 L 42,56 L 43,55 L 44,56 L 44,53 L 45,52 L 45,49 L 44,48 L 45,47 L 46,47 L 46,44 Z" fill="limegreen" /><path d="M 214,42 L 213,43 L 210,43 L 209,44 L 206,44 L 205,45 L 203,45 L 201,47 L 200,47 L 199,48 L 198,48 L 195,51 L 194,51 L 189,56 L 189,57 L 186,60 L 186,61 L 184,63 L 184,65 L 183,66 L 183,67 L 182,68 L 182,70 L 181,71 L 182,72 L 181,73 L 181,74 L 180,75 L 180,89 L 181,90 L 181,92 L 182,93 L 182,95 L 183,96 L 184,95 L 186,97 L 186,98 L 185,99 L 184,98 L 184,99 L 191,106 L 192,106 L 194,108 L 195,108 L 196,109 L 199,109 L 200,110 L 200,111 L 203,111 L 204,112 L 207,112 L 208,111 L 209,112 L 210,112 L 211,113 L 218,113 L 219,112 L 224,112 L 225,111 L 227,111 L 228,110 L 229,110 L 230,109 L 232,109 L 233,108 L 234,108 L 236,106 L 237,106 L 238,105 L 239,105 L 239,102 L 240,101 L 241,102 L 241,103 L 244,100 L 244,99 L 248,95 L 248,94 L 249,93 L 249,92 L 250,91 L 250,90 L 251,89 L 251,88 L 252,87 L 252,85 L 253,84 L 253,81 L 254,80 L 254,67 L 253,66 L 253,65 L 252,66 L 251,65 L 251,62 L 252,61 L 253,62 L 253,63 L 253,62 L 252,61 L 252,60 L 251,59 L 251,58 L 250,57 L 250,56 L 248,54 L 248,53 L 246,51 L 245,51 L 244,50 L 243,50 L 242,49 L 242,48 L 241,48 L 239,46 L 238,46 L 237,45 L 235,45 L 234,44 L 232,44 L 231,43 L 228,43 L 227,42 Z" fill="limegreen" /><path d="M 168,3 L 168,4 L 167,5 L 166,4 L 165,4 L 164,5 L 163,5 L 162,6 L 160,6 L 158,8 L 158,9 L 155,12 L 155,13 L 154,14 L 154,15 L 153,16 L 153,25 L 154,26 L 154,27 L 157,30 L 157,31 L 158,31 L 160,33 L 162,33 L 163,34 L 170,34 L 171,33 L 173,33 L 174,32 L 175,32 L 177,30 L 178,30 L 178,29 L 179,28 L 180,28 L 180,27 L 182,25 L 182,24 L 183,23 L 183,21 L 184,20 L 184,13 L 183,12 L 183,10 L 179,6 L 178,6 L 177,5 L 176,5 L 175,4 L 173,4 L 172,3 Z" fill="limegreen" /><path d="M 123,3 L 122,4 L 120,4 L 119,5 L 118,5 L 117,6 L 116,6 L 110,12 L 110,13 L 109,14 L 109,15 L 108,16 L 108,24 L 109,25 L 109,26 L 110,27 L 110,28 L 112,30 L 112,31 L 113,31 L 114,32 L 115,32 L 116,33 L 117,33 L 118,34 L 125,34 L 127,32 L 128,33 L 129,32 L 130,32 L 132,30 L 133,30 L 133,29 L 134,28 L 135,28 L 134,27 L 134,26 L 135,25 L 136,26 L 137,25 L 137,24 L 138,23 L 138,22 L 139,21 L 139,12 L 138,11 L 138,10 L 133,5 L 132,5 L 131,4 L 129,4 L 128,3 Z" fill="limegreen" /></svg>